# Blender 4.0.2
# www.blender.org
mtllib devscene.mtl
o Plane
v -10.000000 0.000001 10.000000
v 10.000000 0.000001 10.000000
v -10.000000 -0.000001 -10.000000
v 10.000000 -0.000001 -10.000000
v -10.000000 0.000001 10.000000
v -10.000000 -0.000001 -10.000000
v -25.000000 10.000001 9.999999
v 10.000000 10.000001 9.999999
v -25.000000 9.999999 -10.000001
v 10.000000 9.999999 -10.000001
v -25.000000 10.000001 9.999999
v -25.000000 9.999999 -10.000001
v -25.000000 4.999999 -10.000000
v -25.000000 5.000001 10.000000
vn -0.0000 1.0000 -0.0000
vn -0.0000 -0.0000 -0.0000
vn -0.0000 -0.0000 1.0000
vn -0.0000 -0.0000 -1.0000
vn 1.0000 -0.0000 -0.0000
vn -1.0000 -0.0000 -0.0000
vn 0.3162 0.9487 -0.0000
vt 0.000100 0.000100
vt 0.999900 0.999900
vt 0.000100 0.999900
vt 0.436289 0.306477
vt 0.303275 0.693198
vt 0.435902 0.306344
vt 0.999900 0.000100
vt 0.303662 0.693331
vt 0.711336 0.226224
vt -0.009908 0.824908
vt 0.257412 0.228331
vt 0.653659 0.450893
vt 0.222547 0.729531
vt 0.225178 0.443877
vt 0.099590 0.233655
vt 0.156637 0.305922
vt 0.005788 0.565452
vt 0.726120 0.236591
vt 0.300872 0.826861
vt 0.294366 0.233147
vt 0.820952 0.808794
vt 0.972389 0.741810
vt 0.790518 0.999911
vt 0.000089 0.999911
vt 0.790518 0.000089
vt 0.735235 0.810119
vt 0.821497 0.000092
vt 0.821497 0.362215
vt 0.821135 0.000301
vt 0.113350 0.246336
vt 0.055025 0.126524
vt 0.441252 0.132848
vt 0.148749 0.343396
vt 0.137025 0.098198
vt 0.017038 0.285452
vt 0.104999 0.541730
vt 0.000089 0.000089
s 0
usemtl Material.001
f 2/1/1 3/2/1 1/3/1
f 1/4/2 6/5/2 5/6/2
f 2/1/1 4/7/1 3/2/1
f 1/4/2 3/8/2 6/5/2
f 14/23/7 5/24/7 13/25/7
f 9/27/2 7/28/2 12/29/2
f 5/24/7 6/37/7 13/25/7
f 9/27/2 11/28/2 7/28/2
usemtl Material.003
f 4/9/3 9/10/3 3/11/3
f 1/12/4 8/13/4 2/14/4
f 11/15/5 14/16/5 12/17/5
f 2/18/6 10/19/6 4/20/6
f 4/9/3 10/21/3 9/10/3
f 1/12/4 7/22/4 8/13/4
f 2/18/6 8/26/6 10/19/6
f 14/30/4 11/31/4 5/32/4
f 13/33/3 6/34/3 12/35/3
f 14/16/5 13/36/5 12/17/5
