# Blender v3.0.0 OBJ File: ''
# www.blender.org
o Plane
v -0.516333 0.000000 0.516333
v 0.516333 0.000000 0.516333
v -0.516333 0.000000 -0.516333
v 0.516333 0.000000 -0.516333
v -0.516333 1.600000 -0.516333
v -0.516333 1.600000 0.516333
v 0.516333 1.600000 0.516333
v 0.516333 1.600000 -0.516333
vt 0.000000 1.000000
vt 1.000000 0.000000
vt 0.000000 0.000000
vt 1.000000 0.000000
vt 0.000000 1.000000
vt 0.000000 0.000000
vt 1.000000 1.000000
vt 1.000000 1.000000
vn 0.0000 -1.0000 0.0000
vn 0.0000 1.0000 0.0000
vn 0.0000 0.0000 -1.0000
vn 0.0000 0.0000 1.0000
vn 1.0000 0.0000 0.0000
vn -1.0000 0.0000 0.0000
s off
f 3/1/1 2/2/1 1/3/1
f 7/4/2 5/5/2 6/6/2
f 3/1/3 8/7/3 4/8/3
f 2/2/4 6/6/4 1/3/4
f 4/8/5 7/4/5 2/2/5
f 1/3/6 5/5/6 3/1/6
f 3/1/1 4/8/1 2/2/1
f 7/4/2 8/7/2 5/5/2
f 3/1/3 5/5/3 8/7/3
f 2/2/4 7/4/4 6/6/4
f 4/8/5 8/7/5 7/4/5
f 1/3/6 6/6/6 5/5/6
